# xmcd
#
# Track frame offsets:
#	150
#	16693
#	48268
#	69471
#	86756
#	101908
#	154927
#	286155
#
# Disc length: 4311 seconds
#
# Revision: 1
# Processed by: cddbd v1.5PL3 Copyright (c) Steve Scherf et al.
# Submitted via: audiograbber 1.82.01
#
DISCID=6210d508
DTITLE=Elton John - 1971 - Tokyo - Disc 2
DYEAR=1900
DGENRE=
TTITLE0=Elton John - 11 Holiday Inn (Live, 1971)
TTITLE1=Elton John - 12 Can I Put You On (Live, 1971)
TTITLE2=Elton John - 13 Country Comfort (Live 1971)
TTITLE3=Elton John - 14 Honky Tonk Women (Live 1971)
TTITLE4=Elton John - 15 Border Song (Live 1971)
TTITLE5=Elton John - 16 Madman Across The Water (Live 1971)
TTITLE6=Elton John - 17 Amoreena - Take Me To The Pilot - My Baby Left Me (Live
TTITLE6=1971)
TTITLE7=Elton John - 18 Whole Lotta Shakin' Goin' On (Live 1971)
EXTD=
EXTT0=
EXTT1=
EXTT2=
EXTT3=
EXTT4=
EXTT5=
EXTT6=
EXTT7=
PLAYORDER=
